# xmcd
#
# Track frame offsets:
#	150
#	18303
#	31867
#	47158
#	64632
#	81655
#	99073
#	114012
#	130096
#	145774
#
# Disc length: 2178 seconds
#
# Revision: 1
# Processed by: cddbd v1.5.1PL0 Copyright (c) Steve Scherf et al.
# Submitted via: audiograbber 1.83.01
#
DISCID=7408800a
DTITLE=Lisa Hewitt - The Road I Choose
DYEAR=2004
DGENRE=Country
TTITLE0=One Of These Goodbyes
TTITLE1=Say It's Gone
TTITLE2=Eyes Wide Open
TTITLE3=Take Me There
TTITLE4=Don't Stop Loving Me
TTITLE5=California Desert Sky
TTITLE6=Hate It When That Happens
TTITLE7=Somebody
TTITLE8=Remember
TTITLE9=Something for Nothing
EXTD=
EXTT0=
EXTT1=
EXTT2=
EXTT3=
EXTT4=
EXTT5=
EXTT6=
EXTT7=
EXTT8=
EXTT9=
PLAYORDER=
